<svg width="31" height="29" viewBox="0 0 31 29" fill="none" xmlns="http://www.w3.org/2000/svg">
<g clip-path="url(#clip0_809_2066)">
<path fill-rule="evenodd" clip-rule="evenodd" d="M29.6 22C29.6 18.9072 27.0928 16.4 24 16.4C20.9072 16.4 18.4 18.9072 18.4 22C18.4 25.0928 20.9072 27.6 24 27.6C27.0928 27.6 29.6 25.0928 29.6 22ZM24.525 19.725C24.525 19.435 24.29 19.2 24 19.2C23.7101 19.2 23.475 19.435 23.475 19.725V22.938L22.1097 21.4677C21.9124 21.2553 21.5803 21.243 21.3678 21.4403C21.1553 21.6376 21.143 21.9697 21.3403 22.1822L23.6153 24.6322C23.7146 24.7392 23.854 24.8 24 24.8C24.146 24.8 24.2854 24.7392 24.3847 24.6322L26.6597 22.1822C26.857 21.9697 26.8447 21.6376 26.6323 21.4403C26.4198 21.243 26.0876 21.2553 25.8903 21.4677L24.525 22.938V19.725Z" fill="white"/>
</g>
<path d="M13.5 6.75V20.25M10.125 17.0795L11.1137 17.8211C12.4317 18.8096 14.5686 18.8096 15.8865 17.8211C17.2045 16.8326 17.2045 15.2299 15.8865 14.2414C15.2275 13.7471 14.3637 13.5 13.4999 13.5C12.6843 13.5 11.869 13.2529 11.2467 12.7586C10.0024 11.7701 10.0024 10.1674 11.2467 9.17892C12.4911 8.1904 14.5086 8.1904 15.753 9.17892L16.2197 9.54971M23.625 13.5C23.625 19.0919 19.0919 23.625 13.5 23.625C7.90812 23.625 3.375 19.0919 3.375 13.5C3.375 7.90812 7.90812 3.375 13.5 3.375C19.0919 3.375 23.625 7.90812 23.625 13.5Z" stroke="white" stroke-width="1.5" stroke-linecap="round" stroke-linejoin="round"/>
<defs>
<clipPath id="clip0_809_2066">
<rect width="14" height="14" fill="white" transform="matrix(0 -1 1 0 17 29)"/>
</clipPath>
</defs>
</svg>
